<?xml version="1.0" encoding="UTF-8" standalone="no"?><!DOCTYPE svg PUBLIC "-//W3C//DTD SVG 1.1//EN" "http://www.w3.org/Graphics/SVG/1.1/DTD/svg11.dtd"><svg width="100%" height="100%" viewBox="0 0 3305 2471" version="1.1" xmlns="http://www.w3.org/2000/svg" xmlns:xlink="http://www.w3.org/1999/xlink" xml:space="preserve" xmlns:serif="http://www.serif.com/" style="fill-rule:evenodd;clip-rule:evenodd;stroke-linecap:round;stroke-linejoin:round;stroke-miterlimit:1.5;"><circle cx="1662.5" cy="1233.33" r="1233.33"/><circle cx="1656.2" cy="1227.03" r="1142.99" style="fill:#fff;stroke:#000;stroke-width:4.17px;"/><g><path d="M681.296,861.442c0,0 103.963,-351.895 483.248,-542.078l525.27,357.183l-1008.52,184.895Z"/><path d="M1227.58,291.317c-0,-0 319.771,-179.958 724.338,-52.079l127.865,622.204l-852.203,-570.125Z"/><path d="M686.152,1663.26c-0,-0 -172.979,-323.6 -36.354,-725.297l624.832,-114.339l-588.478,839.636Z"/><path d="M1293,2205.2c0,0 -352.406,-102.217 -544.466,-480.556l354.576,-527.033l189.89,1007.59Z"/><path d="M2085.08,2177.41c-0,0 -320.509,178.641 -724.546,49.099l-125.305,-622.726l849.851,573.627Z"/><path d="M2638.24,1603.78c0,0 -101.6,352.585 -479.602,545.306l-527.653,-353.653l1007.25,-191.653Z"/><path d="M2603.09,814.732c0,0 177.901,320.92 47.428,724.658l-623.012,123.869l575.584,-848.527Z"/><path d="M2027.51,268.938c-0,0 350.927,107.183 537.626,488.196l-361.982,521.974l-175.644,-1010.17Z"/></g><circle cx="1662.5" cy="985.406" r="258.433"/><path d="M1214.97,1453.95c0,-0 86.725,-187.234 264.736,-189.097c0,-0 179.005,137.153 357.184,-0c-0,-0 175.884,-9.015 264.735,189.097c0,-0 -109.207,260.449 -453.833,264.736c0,-0 -294.293,0.867 -432.822,-264.736Z"/></svg>